<?xml version="1.0" encoding="UTF-8" standalone="no"?>
<!DOCTYPE svg PUBLIC "-//W3C//DTD SVG 1.1//EN"
 "http://www.w3.org/Graphics/SVG/1.1/DTD/svg11.dtd">
<!-- Generated by graphviz version 2.40.1 (20161225.0304)
 -->
<!-- Title: dependencies Pages: 1 -->
<svg width="1738pt" height="284pt"
 viewBox="0.00 0.00 1738.00 284.00" xmlns="http://www.w3.org/2000/svg" xmlns:xlink="http://www.w3.org/1999/xlink">
<g id="graph0" class="graph" transform="scale(1 1) rotate(0) translate(4 280)">
<title>dependencies</title>
<polygon fill="#ffffff" stroke="transparent" points="-4,4 -4,-280 1734,-280 1734,4 -4,4"/>
<text text-anchor="start" x="844.0091" y="-42.4" font-family="sans-serif" font-weight="bold" font-size="14.00" fill="#000000">Legend</text>
<polygon fill="#ffffb3" stroke="transparent" points="631,-10 631,-30 651,-30 651,-10 631,-10"/>
<text text-anchor="start" x="654.629" y="-15.4" font-family="sans-serif" font-size="14.00" fill="#000000"> &#160;Declarations</text>
<polygon fill="#8dd3c7" stroke="transparent" points="744,-10 744,-30 764,-30 764,-10 744,-10"/>
<text text-anchor="start" x="767.7251" y="-15.4" font-family="sans-serif" font-size="14.00" fill="#000000"> &#160;Module</text>
<polygon fill="#80b1d3" stroke="transparent" points="830,-10 830,-30 850,-30 850,-10 830,-10"/>
<text text-anchor="start" x="853.7812" y="-15.4" font-family="sans-serif" font-size="14.00" fill="#000000"> &#160;Bootstrap</text>
<polygon fill="#fdb462" stroke="transparent" points="927,-10 927,-30 947,-30 947,-10 927,-10"/>
<text text-anchor="start" x="950.6732" y="-15.4" font-family="sans-serif" font-size="14.00" fill="#000000"> &#160;Providers</text>
<polygon fill="#fb8072" stroke="transparent" points="1023,-10 1023,-30 1043,-30 1043,-10 1023,-10"/>
<text text-anchor="start" x="1046.7258" y="-15.4" font-family="sans-serif" font-size="14.00" fill="#000000"> &#160;Exports</text>
<g id="clust1" class="cluster">
<title>cluster_AppModule</title>
<polygon fill="none" stroke="#000000" stroke-dasharray="1,5" points="8,-70 8,-268 1722,-268 1722,-70 8,-70"/>
</g>
<g id="clust2" class="cluster">
<title>cluster_AppModule_declarations</title>
<polygon fill="none" stroke="#000000" points="308,-78 308,-130 1714,-130 1714,-78 308,-78"/>
</g>
<g id="clust13" class="cluster">
<title>cluster_AppModule_imports</title>
<polygon fill="none" stroke="#000000" points="156,-78 156,-130 300,-130 300,-78 156,-78"/>
</g>
<g id="clust15" class="cluster">
<title>cluster_AppModule_bootstrap</title>
<polygon fill="none" stroke="#000000" points="788,-208 788,-260 912,-260 912,-208 788,-208"/>
</g>
<g id="clust16" class="cluster">
<title>cluster_AppModule_providers</title>
<polygon fill="none" stroke="#000000" points="16,-78 16,-130 148,-130 148,-78 16,-78"/>
</g>
<!-- AlbumComponent -->
<g id="node1" class="node">
<title>AlbumComponent</title>
<polygon fill="#ffffb3" stroke="#000000" points="1706.2204,-122 1585.7796,-122 1585.7796,-86 1706.2204,-86 1706.2204,-122"/>
<text text-anchor="middle" x="1646" y="-99.8" font-family="Times,serif" font-size="14.00" fill="#000000">AlbumComponent</text>
</g>
<!-- AppModule -->
<g id="node11" class="node">
<title>AppModule</title>
<polygon fill="#8dd3c7" stroke="#000000" points="891.6571,-187 888.6571,-191 867.6571,-191 864.6571,-187 808.3429,-187 808.3429,-151 891.6571,-151 891.6571,-187"/>
<text text-anchor="middle" x="850" y="-164.8" font-family="Times,serif" font-size="14.00" fill="#000000">AppModule</text>
</g>
<!-- AlbumComponent&#45;&gt;AppModule -->
<g id="edge1" class="edge">
<title>AlbumComponent&#45;&gt;AppModule</title>
<path fill="none" stroke="#000000" d="M1646,-122.2479C1646,-145.0179 1646,-181 1646,-181 1646,-181 901.6757,-181 901.6757,-181"/>
<polygon fill="#000000" stroke="#000000" points="901.6757,-177.5001 891.6757,-181 901.6756,-184.5001 901.6757,-177.5001"/>
</g>
<!-- AlbumdetailComponent -->
<g id="node2" class="node">
<title>AlbumdetailComponent</title>
<polygon fill="#ffffb3" stroke="#000000" points="1567.8215,-122 1416.1785,-122 1416.1785,-86 1567.8215,-86 1567.8215,-122"/>
<text text-anchor="middle" x="1492" y="-99.8" font-family="Times,serif" font-size="14.00" fill="#000000">AlbumdetailComponent</text>
</g>
<!-- AlbumdetailComponent&#45;&gt;AppModule -->
<g id="edge2" class="edge">
<title>AlbumdetailComponent&#45;&gt;AppModule</title>
<path fill="none" stroke="#000000" d="M1492,-122.2843C1492,-143.3211 1492,-175 1492,-175 1492,-175 902.1234,-175 902.1234,-175"/>
<polygon fill="#000000" stroke="#000000" points="902.1234,-171.5001 892.1234,-175 902.1234,-178.5001 902.1234,-171.5001"/>
</g>
<!-- AlbumlistComponent -->
<g id="node3" class="node">
<title>AlbumlistComponent</title>
<polygon fill="#ffffb3" stroke="#000000" points="1398.837,-122 1261.163,-122 1261.163,-86 1398.837,-86 1398.837,-122"/>
<text text-anchor="middle" x="1330" y="-99.8" font-family="Times,serif" font-size="14.00" fill="#000000">AlbumlistComponent</text>
</g>
<!-- AlbumlistComponent&#45;&gt;AppModule -->
<g id="edge3" class="edge">
<title>AlbumlistComponent&#45;&gt;AppModule</title>
<path fill="none" stroke="#000000" d="M1330,-122.1061C1330,-141.3391 1330,-169 1330,-169 1330,-169 901.7572,-169 901.7572,-169"/>
<polygon fill="#000000" stroke="#000000" points="901.7572,-165.5001 891.7572,-169 901.7571,-172.5001 901.7572,-165.5001"/>
</g>
<!-- AppComponent -->
<g id="node4" class="node">
<title>AppComponent</title>
<polygon fill="#ffffb3" stroke="#000000" points="1243.9399,-122 1138.0601,-122 1138.0601,-86 1243.9399,-86 1243.9399,-122"/>
<text text-anchor="middle" x="1191" y="-99.8" font-family="Times,serif" font-size="14.00" fill="#000000">AppComponent</text>
</g>
<!-- AppComponent&#45;&gt;AppModule -->
<g id="edge4" class="edge">
<title>AppComponent&#45;&gt;AppModule</title>
<path fill="none" stroke="#000000" d="M1191,-122.0225C1191,-139.3734 1191,-163 1191,-163 1191,-163 901.8133,-163 901.8133,-163"/>
<polygon fill="#000000" stroke="#000000" points="901.8133,-159.5001 891.8133,-163 901.8133,-166.5001 901.8133,-159.5001"/>
</g>
<!-- ContactComponent -->
<g id="node5" class="node">
<title>ContactComponent</title>
<polygon fill="#ffffb3" stroke="#000000" points="1120.3795,-122 995.6205,-122 995.6205,-86 1120.3795,-86 1120.3795,-122"/>
<text text-anchor="middle" x="1058" y="-99.8" font-family="Times,serif" font-size="14.00" fill="#000000">ContactComponent</text>
</g>
<!-- ContactComponent&#45;&gt;AppModule -->
<g id="edge5" class="edge">
<title>ContactComponent&#45;&gt;AppModule</title>
<path fill="none" stroke="#000000" d="M1058,-122.2396C1058,-137.5706 1058,-157 1058,-157 1058,-157 902.0919,-157 902.0919,-157"/>
<polygon fill="#000000" stroke="#000000" points="902.0919,-153.5001 892.0919,-157 902.0919,-160.5001 902.0919,-153.5001"/>
</g>
<!-- FooterComponent -->
<g id="node6" class="node">
<title>FooterComponent</title>
<polygon fill="#ffffb3" stroke="#000000" points="977.8809,-122 860.1191,-122 860.1191,-86 977.8809,-86 977.8809,-122"/>
<text text-anchor="middle" x="919" y="-99.8" font-family="Times,serif" font-size="14.00" fill="#000000">FooterComponent</text>
</g>
<!-- FooterComponent&#45;&gt;AppModule -->
<g id="edge6" class="edge">
<title>FooterComponent&#45;&gt;AppModule</title>
<path fill="none" stroke="#000000" d="M875.9439,-122.1061C875.9439,-122.1061 875.9439,-140.991 875.9439,-140.991"/>
<polygon fill="#000000" stroke="#000000" points="872.444,-140.9909 875.9439,-150.991 879.444,-140.991 872.444,-140.9909"/>
</g>
<!-- HeaderComponent -->
<g id="node7" class="node">
<title>HeaderComponent</title>
<polygon fill="#ffffb3" stroke="#000000" points="841.7437,-122 720.2563,-122 720.2563,-86 841.7437,-86 841.7437,-122"/>
<text text-anchor="middle" x="781" y="-99.8" font-family="Times,serif" font-size="14.00" fill="#000000">HeaderComponent</text>
</g>
<!-- HeaderComponent&#45;&gt;AppModule -->
<g id="edge7" class="edge">
<title>HeaderComponent&#45;&gt;AppModule</title>
<path fill="none" stroke="#000000" d="M825.0218,-122.1061C825.0218,-122.1061 825.0218,-140.991 825.0218,-140.991"/>
<polygon fill="#000000" stroke="#000000" points="821.5218,-140.9909 825.0218,-150.991 828.5218,-140.991 821.5218,-140.9909"/>
</g>
<!-- HomeComponent -->
<g id="node8" class="node">
<title>HomeComponent</title>
<polygon fill="#ffffb3" stroke="#000000" points="701.5451,-122 586.4549,-122 586.4549,-86 701.5451,-86 701.5451,-122"/>
<text text-anchor="middle" x="644" y="-99.8" font-family="Times,serif" font-size="14.00" fill="#000000">HomeComponent</text>
</g>
<!-- HomeComponent&#45;&gt;AppModule -->
<g id="edge8" class="edge">
<title>HomeComponent&#45;&gt;AppModule</title>
<path fill="none" stroke="#000000" d="M644,-122.2396C644,-137.5706 644,-157 644,-157 644,-157 798.3128,-157 798.3128,-157"/>
<polygon fill="#000000" stroke="#000000" points="798.3129,-160.5001 808.3128,-157 798.3128,-153.5001 798.3129,-160.5001"/>
</g>
<!-- LoginComponent -->
<g id="node9" class="node">
<title>LoginComponent</title>
<polygon fill="#ffffb3" stroke="#000000" points="568.2758,-122 453.7242,-122 453.7242,-86 568.2758,-86 568.2758,-122"/>
<text text-anchor="middle" x="511" y="-99.8" font-family="Times,serif" font-size="14.00" fill="#000000">LoginComponent</text>
</g>
<!-- LoginComponent&#45;&gt;AppModule -->
<g id="edge9" class="edge">
<title>LoginComponent&#45;&gt;AppModule</title>
<path fill="none" stroke="#000000" d="M511,-122.0225C511,-139.3734 511,-163 511,-163 511,-163 798.0919,-163 798.0919,-163"/>
<polygon fill="#000000" stroke="#000000" points="798.092,-166.5001 808.0919,-163 798.0919,-159.5001 798.092,-166.5001"/>
</g>
<!-- SearchComponent -->
<g id="node10" class="node">
<title>SearchComponent</title>
<polygon fill="#ffffb3" stroke="#000000" points="435.9201,-122 316.0799,-122 316.0799,-86 435.9201,-86 435.9201,-122"/>
<text text-anchor="middle" x="376" y="-99.8" font-family="Times,serif" font-size="14.00" fill="#000000">SearchComponent</text>
</g>
<!-- SearchComponent&#45;&gt;AppModule -->
<g id="edge10" class="edge">
<title>SearchComponent&#45;&gt;AppModule</title>
<path fill="none" stroke="#000000" d="M376,-122.1061C376,-141.3391 376,-169 376,-169 376,-169 797.9357,-169 797.9357,-169"/>
<polygon fill="#000000" stroke="#000000" points="797.9357,-172.5001 807.9357,-169 797.9356,-165.5001 797.9357,-172.5001"/>
</g>
<!-- AppComponent  -->
<g id="node13" class="node">
<title>AppComponent </title>
<polygon fill="#80b1d3" stroke="#000000" points="904.439,-252 795.561,-252 795.561,-216 904.439,-216 904.439,-252"/>
<text text-anchor="middle" x="850" y="-229.8" font-family="Times,serif" font-size="14.00" fill="#000000">AppComponent </text>
</g>
<!-- AppModule&#45;&gt;AppComponent  -->
<g id="edge12" class="edge">
<title>AppModule&#45;&gt;AppComponent </title>
<path fill="none" stroke="#000000" stroke-dasharray="1,5" d="M850,-187.1061C850,-187.1061 850,-205.991 850,-205.991"/>
<polygon fill="#000000" stroke="#000000" points="846.5001,-205.9909 850,-215.991 853.5001,-205.991 846.5001,-205.9909"/>
</g>
<!-- AppRoutingModule -->
<g id="node12" class="node">
<title>AppRoutingModule</title>
<polygon fill="#8dd3c7" stroke="#000000" points="292.2744,-122 289.2744,-126 268.2744,-126 265.2744,-122 163.7256,-122 163.7256,-86 292.2744,-86 292.2744,-122"/>
<text text-anchor="middle" x="228" y="-99.8" font-family="Times,serif" font-size="14.00" fill="#000000">AppRoutingModule</text>
</g>
<!-- AppRoutingModule&#45;&gt;AppModule -->
<g id="edge11" class="edge">
<title>AppRoutingModule&#45;&gt;AppModule</title>
<path fill="none" stroke="#000000" d="M228,-122.2843C228,-143.3211 228,-175 228,-175 228,-175 798.223,-175 798.223,-175"/>
<polygon fill="#000000" stroke="#000000" points="798.223,-178.5001 808.223,-175 798.223,-171.5001 798.223,-178.5001"/>
</g>
<!-- DiscService -->
<g id="node14" class="node">
<title>DiscService</title>
<ellipse fill="#fdb462" stroke="#000000" cx="82" cy="-104" rx="57.879" ry="18"/>
<text text-anchor="middle" x="82" y="-99.8" font-family="Times,serif" font-size="14.00" fill="#000000">DiscService</text>
</g>
<!-- DiscService&#45;&gt;AppModule -->
<g id="edge13" class="edge">
<title>DiscService&#45;&gt;AppModule</title>
<path fill="none" stroke="#000000" d="M82,-122.2479C82,-145.0179 82,-181 82,-181 82,-181 798.1636,-181 798.1636,-181"/>
<polygon fill="#000000" stroke="#000000" points="798.1636,-184.5001 808.1636,-181 798.1635,-177.5001 798.1636,-184.5001"/>
</g>
</g>
</svg>
